# xmcd
#
# Track frame offsets: 
#        150
#        10347
#        22041
#        32588
#        43675
#        53641
#        63709
#        71203
#        81995
#        90630
#        105171
#        120085
#        134866
#        145542
#        157837
#        168632
#        181404
#        191808
#        205377
#        215545
#        227357
#        240162
#        265436
#        278701
#        287423
#
# Disc length: 4002 seconds
#
# Revision: 0
# Processed by: cddbd v1.5.2PL0 Copyright (c) Steve Scherf et al.
# Submitted via: ExactAudioCopy v1.3
#
DISCID=600fa019
DTITLE=Jim Reeves  - Jim Reeves . Hows TheWorld Treating You Cd2
DYEAR=1900
DGENRE=Country
TTITLE0=Losing Your Love
TTITLE1=Mona Lisa
TTITLE2=Your Old Love Letters
TTITLE3=Just Call Me Lonsome
TTITLE4=Now And Then Theres a Fool Such As I
TTITLE5=Making Believe
TTITLE6=Till The End Of The World
TTITLE7=Hows The World Treating You
TTITLE8=Throw Another Log On The Fire
TTITLE9=That Silver Haired Daddy Of Mine
TTITLE10=Rodger Young
TTITLE11=Fool's Paradise
TTITLE12=It's Nothin To Me
TTITLE13=Mighty Everglades
TTITLE14=Letter Edged In Black
TTITLE15=Tie That Binds
TTITLE16=The Wreck Of The No 9
TTITLE17=Trouble In The Amen Corner
TTITLE18=I'm Waiting For Ships That Never Come In
TTITLE19=Annabel lee
TTITLE20=Gun
TTITLE21=Shifting Whispering Sands
TTITLE22=Old Tige
TTITLE23=Why Do I Love You
TTITLE24=Goodnight Irene
EXTD=
EXTT0=
EXTT1=
EXTT2=
EXTT3=
EXTT4=
EXTT5=
EXTT6=
EXTT7=
EXTT8=
EXTT9=
EXTT10=
EXTT11=
EXTT12=
EXTT13=
EXTT14=
EXTT15=
EXTT16=
EXTT17=
EXTT18=
EXTT19=
EXTT20=
EXTT21=
EXTT22=
EXTT23=
EXTT24=
PLAYORDER=
